<?xml version="1.0" encoding="UTF-8"?>
<svg width="1000px" height="531px" viewBox="0 0 1000 531" version="1.1" xmlns="http://www.w3.org/2000/svg" xmlns:xlink="http://www.w3.org/1999/xlink">
    <!-- Generator: Sketch 55.2 (78181) - https://sketchapp.com -->
    <title>Illustration </title>
    <desc>Created with Sketch.</desc>
    <g id="All-screens" stroke="none" stroke-width="1" fill="none" fill-rule="evenodd">
        <g id="FAQ/Supplier" transform="translate(-231.000000, -174.000000)">
            <g id="Illustration-" transform="translate(209.000000, 160.000000)">
                <g id="Illustration">
                    <g id="Scene/Home" transform="translate(22.000000, 0.000000)">
                        <g id="Background-Shape-2" opacity="0.504510789" transform="translate(53.959459, 304.786765)" fill="#F2F2F2">
                            <path d="M870.302002,139.094447 C882.993679,201.26375 575.198914,241.814659 310.272825,213.515157 C45.3467356,185.215656 -76.1887929,74.7029093 50.2295201,15.8173738 C176.647833,-43.0681617 857.610325,76.9251434 870.302002,139.094447 Z" id="Background-Shape"></path>
                        </g>
                        <path d="M842.663291,112.553408 C847.699839,110.376482 854.096049,113.542571 851.028861,119.834517 C847.743478,126.572193 836.927275,126.090703 830.828432,125.634117 C831.441247,125.634117 833.740391,119.418162 834.464173,118.498604 C836.598736,115.785909 839.566802,113.894429 842.663291,112.553408 Z M779.628132,233.136439 C778.334132,234.130439 779.522132,233.230439 779.628132,233.136439 Z M845.75877,143.969059 C848.516388,146.315587 848.45021,150.199928 845.966044,152.701304 C843.008019,155.679131 837.9117,155.297969 834.11896,154.793933 C832.40333,154.565737 823.242692,153.347022 825.502104,151.955906 C825.33104,152.010448 824.972681,152.14586 824.586852,152.335188 C824.346489,153.061777 824.096137,153.785233 823.837044,154.504927 C823.889487,154.539407 823.933814,154.575768 823.990002,154.610248 C823.928819,154.579529 823.886365,154.547557 823.832674,154.516838 C821.237378,161.710016 817.723709,168.504479 813.259201,174.799293 C814.833735,174.272688 816.455716,173.896541 818.087063,173.776801 C822.918046,173.421343 832.818502,177.67995 827.115345,183.788572 C821.646932,189.644548 813.977793,182.652609 808.183485,181.440163 C802.102614,189.05149 795.457983,196.302971 788.52679,203.285507 C788.92136,203.432204 789.259741,203.712434 789.440169,204.130583 C792.136604,202.935691 794.973512,201.172817 797.431457,200.784132 C800.978215,200.2243 808.194723,200.150325 810.681387,203.42907 C813.739927,207.460735 810.080167,210.413486 806.188785,210.952003 C800.546186,211.733134 793.376503,208.620521 788.097883,206.494665 C787.477309,206.571148 786.815531,206.356118 786.440315,205.843304 C786.323567,205.798167 786.206819,205.753656 786.093193,205.710399 C779.080838,212.652813 771.827496,219.341327 764.624099,225.877503 C764.697144,225.877503 764.77019,225.876876 764.846357,225.876876 C766.692469,224.799843 768.657202,223.93972 770.758661,223.545393 C775.620236,222.626969 781.268453,222.917228 784.981905,226.594689 C788.680997,230.256477 789.738594,236.37701 785.520692,240.050082 C777.078022,247.402496 766.168041,229.057823 762.153667,228.105545 C754.837269,234.674319 747.145654,240.766642 739.345408,246.722297 C740.206969,246.50852 741.086635,246.364331 741.990025,246.326089 C749.349502,246.008872 766.066901,255.887111 756.617203,264.248851 C748.382431,271.535439 740.094592,256.245704 734.054926,250.733901 C726.707936,256.280811 719.324735,261.78509 712.128206,267.52885 C715.930935,266.729538 719.563225,266.772795 723.520161,268.198391 C727.614448,269.675393 734.162933,273.168542 731.238622,278.647745 C728.264364,284.219731 720.339254,281.19802 716.235603,279.16432 C713.997418,278.055314 709.580983,274.476279 705.623423,272.858848 C694.107228,282.643677 684.004492,293.556318 676.104355,306.621146 C671.172232,314.778513 667.293336,323.566553 664.410853,332.656764 C662.570984,338.458826 659.035464,348.180337 659.238368,355.868148 C657.161881,340.39222 663.333278,322.259443 669.660131,308.855457 C675.477538,296.529758 683.775367,285.876657 693.337442,276.397134 C691.426401,269.454721 672.846657,258.612293 684.594474,252.871041 C690.832049,249.836791 696.749347,255.724114 697.765739,261.684158 C698.463728,265.779768 696.810531,270.793176 695.132985,274.644918 C698.135961,271.759873 701.24632,268.978268 704.441586,266.29885 C708.857397,262.595686 713.368104,259.011636 717.917519,255.477738 C711.098703,248.364177 705.320628,228.746875 715.101839,226.100683 C729.544843,222.206311 721.330673,248.121563 720.082035,252.993916 C719.799842,252.995797 719.585076,252.899252 719.433367,252.708671 C719.489556,253.163809 719.556982,253.650919 719.643762,254.143044 C728.349272,247.416915 737.170904,240.838109 745.730322,233.932684 C745.022344,233.349656 743.960377,231.208128 743.098192,230.052731 C741.152189,227.447915 739.301706,224.736524 738.002497,221.740516 C735.95036,217.006084 734.123601,209.530169 740.346817,207.134741 C747.115063,204.524283 749.821487,213.013287 749.607346,217.981557 C749.458758,221.417657 748.352464,224.631203 747.688812,227.972013 C747.481538,229.013939 747.819919,233.77721 746.496362,231.6664 C746.524457,232.420574 746.505727,232.964733 746.452036,233.348402 C747.98911,232.102103 749.515571,230.840758 751.033291,229.569382 C750.975229,229.395728 750.935273,229.207655 750.935273,228.991997 C750.935273,227.507472 752.454866,227.015346 753.476877,227.50371 C755.481566,225.789108 757.468775,224.050684 759.424143,222.274018 C763.568375,218.510043 767.775663,214.635733 771.959852,210.673028 C771.138247,209.888762 771.534066,208.883196 770.770523,208.056301 C770.008229,207.231286 768.448679,206.715338 767.542168,205.938595 C765.262153,203.983886 763.431649,201.214193 762.144303,198.51534 C760.01912,194.056122 757.455664,184.801033 764.436179,183.094581 C771.63146,181.332334 774.76804,190.276475 774.936606,195.774485 C774.969695,196.839607 773.674857,206.35361 772.885093,209.791591 C780.62915,202.425385 788.267697,194.762024 795.235101,186.923127 C793.253512,186.80088 787.845658,182.444474 786.767458,181.276539 C784.136576,178.427855 780.04229,172.223316 785.068685,169.316956 C789.537563,166.739724 794.651987,171.07983 796.293323,175.123406 C796.563029,175.789186 797.317206,181.894046 797.25852,184.612333 C800.146622,181.284689 802.911108,177.930087 805.496414,174.554798 C807.22016,172.311083 808.842142,170.000289 810.370476,167.633699 C810.043332,167.424938 809.743659,167.075121 809.465837,166.64506 C802.32175,165.04393 793.721127,153.315676 802.392923,149.84635 C806.521547,148.196947 810.692,152.266854 812.501902,155.514881 C812.872748,156.179406 813.358468,159.448121 813.758032,162.027233 C818.210678,154.15511 821.738082,145.75889 824.541276,137.107517 C823.921951,136.918816 823.415628,136.411645 823.388783,135.583496 C819.993734,133.40498 817.317277,131.598849 815.075346,127.634263 C813.68249,125.171756 811.234534,119.584097 815.763346,118.495153 C821.656921,117.078334 824.837828,126.133438 825.08381,130.524323 C825.112529,131.034002 825.03324,132.50787 824.943338,133.85761 C825.146242,133.840683 825.34977,133.854475 825.547679,133.900239 C827.165291,128.537015 828.517566,123.089784 829.652579,117.621866 C826.538474,116.436377 826.862496,99.7724526 829.095686,97.5143188 C834.087744,92.4576538 837.012055,100.293416 836.548186,104.329469 C836.000658,109.088352 833.609515,113.318121 830.831294,117.037584 C830.533493,117.431285 830.613406,117.415612 830.571577,116.843242 C830.517261,117.122217 830.412376,117.32471 830.265036,117.467646 C830.266285,119.987828 830.390524,122.574463 830.149537,124.791848 C829.45904,131.141831 828.381465,137.50874 826.974873,143.738982 C826.632746,145.254227 826.25316,146.755052 825.837988,148.240831 C828.497588,146.205251 832.031236,144.458049 833.405987,143.925802 C836.973972,142.545971 842.434893,141.140436 845.75877,143.969059 Z M658.828432,355.868148 C658.873761,358.097495 659.167933,360.151967 659.828432,361.868148 C659.367285,359.929454 659.040736,357.92262 658.828432,355.868148 Z" id="Leaf-Bottom" fill="#F2F2F2" transform="translate(755.328432, 228.868148) scale(-1, 1) rotate(-3.000000) translate(-755.328432, -228.868148) "></path>
                        <path d="M214.702387,42.658046 C218.299921,41.1030993 222.868643,43.3645911 220.677794,47.8588384 C218.331092,52.6714644 210.605232,52.3275425 206.248916,52.0014097 C206.686641,52.0014097 208.328887,47.5614418 208.845874,46.9046148 C210.370562,44.9669752 212.490609,43.6159186 214.702387,42.658046 Z M169.628711,130.226253 C168.334711,131.220253 169.522711,130.320253 169.628711,130.226253 Z M217.580064,65.7242363 C219.593564,67.4209568 219.545243,70.2296343 217.731407,72.038321 C215.571579,74.1915196 211.850458,73.9159102 209.081155,73.551453 C207.828473,73.38645 201.139754,72.5052251 202.789483,71.4993415 C202.664579,71.538779 202.40292,71.6366929 202.121204,71.773591 C201.9457,72.2989714 201.762904,72.8220853 201.573725,73.3424794 C201.612017,73.3674112 201.644382,73.3937029 201.685409,73.4186346 C201.640735,73.3964227 201.609737,73.3733041 201.570534,73.3510922 C199.675556,78.5523133 197.11002,83.4652324 193.850221,88.0168674 C194.99988,87.6360912 196.184184,87.3641083 197.375326,87.277527 C200.902711,87.0205031 208.131615,90.0998037 203.967405,94.5168072 C199.974595,98.7511287 194.374907,93.6954186 190.144142,92.8187268 C185.704141,98.3223023 180.852506,103.565681 175.791635,108.614591 C176.079733,108.720665 176.326805,108.923292 176.458547,109.225646 C178.427372,108.361647 180.498765,107.086954 182.293455,106.805904 C184.883152,106.401103 190.152347,106.347613 191.968007,108.718398 C194.201227,111.633602 191.529021,113.768669 188.687694,114.158058 C184.567702,114.722876 179.332695,112.472216 175.478464,110.935059 C175.025347,110.990363 174.542144,110.834879 174.268177,110.464075 C174.182932,110.431438 174.097688,110.399253 174.014723,110.367975 C168.894591,115.387874 163.598499,120.224184 158.338876,124.950342 C158.392211,124.950342 158.445546,124.949889 158.50116,124.949889 C159.849115,124.171111 161.283682,123.549176 162.81808,123.264047 C166.367802,122.599956 170.491897,122.809836 173.203306,125.468923 C175.90423,128.116677 176.676444,132.542293 173.596706,135.198207 C167.432217,140.514568 159.466199,127.249958 156.535069,126.561388 C151.192937,131.311117 145.576837,135.716335 139.88142,140.022732 C140.510496,139.868155 141.152792,139.763895 141.81241,139.736243 C147.185996,139.506871 159.392351,146.649597 152.492572,152.695778 C146.479881,157.964542 140.428442,146.908887 136.018528,142.92343 C130.654059,146.934272 125.26315,150.91429 120.008542,155.06747 C122.785138,154.489506 125.437286,154.520784 128.326477,155.5516 C131.315956,156.619586 136.09739,159.145401 133.962178,163.107287 C131.790498,167.136261 126.00391,164.951331 123.007594,163.48081 C121.373363,162.678913 118.148665,160.090995 115.259017,158.921469 C106.850367,165.996652 99.4737664,173.887332 93.7054124,183.334207 C90.1041798,189.232611 87.2719699,195.58704 85.1673001,202.159962 C83.8239036,206.355299 81.2424124,213.384699 81.3905644,218.943578 C79.8743999,207.753292 84.3804992,194.641899 89.0001057,184.949786 C93.2477367,176.037357 99.3064687,168.334346 106.288301,161.479922 C104.892938,156.460023 91.3267754,148.620113 99.9045468,144.468747 C104.458966,142.274751 108.779534,146.531738 109.521661,150.841308 C110.031304,153.802749 108.824207,157.427829 107.599332,160.212934 C109.791982,158.126825 112.063037,156.115511 114.396089,154.178086 C117.620332,151.500413 120.913864,148.908869 124.235659,146.353589 C119.256841,141.209937 115.037929,127.025119 122.179766,125.111718 C132.725451,122.295788 126.727804,141.034508 125.816099,144.557594 C125.610054,144.558954 125.453241,144.489145 125.342469,144.351341 C125.383495,144.68044 125.432727,145.032658 125.496091,145.388502 C131.852494,140.524994 138.293686,135.768011 144.54342,130.774857 C144.026484,130.353284 143.251079,128.804794 142.621547,127.969353 C141.200656,126.085871 139.84951,124.125327 138.900882,121.958983 C137.402495,118.535624 136.068672,113.129962 140.612607,111.397884 C145.554501,109.510322 147.53062,115.648524 147.374263,119.240966 C147.26577,121.72553 146.458,124.049172 145.973429,126.464834 C145.822086,127.218227 146.069158,130.662438 145.102751,129.13616 C145.123264,129.681486 145.109589,130.074954 145.070386,130.352377 C146.192694,129.451207 147.307252,128.539157 148.415429,127.619855 C148.373035,127.494289 148.34386,127.358298 148.34386,127.202361 C148.34386,126.128935 149.453405,125.77309 150.199635,126.126215 C151.663376,124.886426 153.114354,123.629411 154.542083,122.344745 C157.56803,119.623102 160.640018,116.821677 163.69514,113.956337 C163.095239,113.389252 163.384249,112.662151 162.826742,112.064242 C162.270146,111.467693 161.131427,111.094623 160.46953,110.532978 C158.804757,109.119573 157.468199,107.116872 156.528231,105.165394 C154.97651,101.941036 153.104781,95.2488947 158.201665,94.0149986 C163.455362,92.7407583 165.745563,99.2080601 165.868643,103.183545 C165.892804,103.95371 164.947366,110.833066 164.370713,113.31899 C170.025104,107.992657 175.602456,102.451457 180.689767,96.7833319 C179.242892,96.6949375 175.2943,93.5449213 174.507043,92.7004142 C172.586082,90.6405965 169.596603,86.1542373 173.266669,84.0527156 C176.52966,82.1891789 180.264001,85.3274091 181.462436,88.2512261 C181.659365,88.7326359 182.210034,93.1469196 182.167184,95.1124499 C184.275956,92.7063072 186.29447,90.2806724 188.182154,87.8400785 C189.440762,86.2177 190.625066,84.546818 191.740993,82.8355918 C191.502126,82.6846412 191.283317,82.4316971 191.080463,82.1207299 C185.864146,80.962989 179.584325,72.4825599 185.916113,69.9739703 C188.930664,68.7813249 191.975756,71.7241807 193.297272,74.0727537 C193.568048,74.5532569 193.922701,76.916789 194.214447,78.7816856 C197.465585,73.0895352 200.04115,67.018422 202.087926,60.7628136 C201.635721,60.6263688 201.266025,60.2596451 201.246423,59.6608292 C198.767499,58.0855945 196.81326,56.779623 195.176295,53.9129224 C194.159289,52.1323406 192.371892,48.0920335 195.678644,47.3046428 C199.981889,46.2801736 202.304456,52.8277104 202.484062,56.0026583 C202.505031,56.3711952 202.447138,57.4369151 202.381495,58.4128807 C202.529647,58.4006415 202.678255,58.4106142 202.82276,58.4437054 C204.003873,54.5656815 204.991249,50.6269148 205.819989,46.673189 C203.546198,45.8159893 203.782785,33.7666903 205.413368,32.1338858 C209.058363,28.4775281 211.193575,34.1433867 210.854876,37.061764 C210.455094,40.5028019 208.70918,43.5612505 206.680638,46.2507088 C206.463196,46.5353843 206.521545,46.5240516 206.491003,46.1101842 C206.451344,46.3119049 206.374761,46.4583224 206.26718,46.561676 C206.268091,48.3839619 206.358806,50.2542981 206.182847,51.8576377 C205.678674,56.4491636 204.891873,61.0529288 203.864838,65.5578734 C203.615031,66.6535115 203.337873,67.7387235 203.034731,68.8130563 C204.976662,67.3411751 207.556786,66.0778142 208.560572,65.6929583 C211.165768,64.6952341 215.153107,63.6789244 217.580064,65.7242363 Z M80.9970115,218.484568 C81.0423399,219.9708 81.336512,221.340448 81.9970115,222.484568 C81.5358644,221.192106 81.2093149,219.854217 80.9970115,218.484568 Z" id="Leaf-Top" fill="#C1DEE2" opacity="0.2" transform="translate(151.122964, 126.714073) rotate(-3.000000) translate(-151.122964, -126.714073) "></path>
                        <g id="Plant-Right" opacity="0.7" transform="translate(742.000000, 143.000000)">
                            <path d="M79.9047528,113.040378 C66.2530447,113.763024 50.2943362,123.453253 50.3969417,138.364313 C50.4717916,149.198479 51.9215094,159.856965 51.4184788,170.735674 C51.0157194,179.430065 49.1251777,187.934396 46.1884145,196.124248 C43.3645394,203.999655 36.5431303,211.167853 35.436189,219.380461 C34.7305556,224.613392 36.1801359,231.717944 38.4174204,236.528898 C41.1381257,242.378219 39.9806746,242.014971 36.3655703,247.542924 C29.2817053,258.37603 23.0341453,269.378157 19.1082064,281.839931 C13.4530146,299.789359 10.6714461,320.367962 15.4148106,338.86673 C16.0178728,341.21586 17.3353725,349.734582 20.6839214,349.987756 C24.4238591,350.27121 22.1932685,345.554422 21.8310908,343.993101 C19.5216852,334.030746 17.4849615,325.324509 17.9135797,314.914948 C19.5678962,274.751412 45.2035015,245.709474 60.1509621,210.198324 C60.9846805,208.360426 62.6955789,204.012856 63.9005736,201.136619 C65.8029769,196.595678 67.3104972,188.177093 70.1621387,184.658557 C75.5325909,178.03009 71.2830113,190.667575 70.3556501,193.092328 C69.1832784,196.159421 67.8821244,199.424932 66.6353083,202.135537 C60.9464558,214.690583 54.5660296,228.413437 48.6881887,241.356913 C80.3924105,245.15732 98.2859955,205.641673 104.022858,180.295993 C108.749645,159.413931 111.985935,111.412785 79.9047528,113.040378" id="Leaf-Me-Alone!" fill="#69A1AC" transform="translate(60.000000, 231.500000) scale(-1, 1) rotate(6.000000) translate(-60.000000, -231.500000) "></path>
                            <path d="M210.80537,78.1211996 C187.982635,79.932006 173.33094,94.991753 166.510526,116.055531 C162.834567,127.406956 162.413232,139.068178 160.370472,150.73361 C157.297501,168.284374 150.685653,181.584667 137.763871,194.088576 C133.761608,197.961058 130.812263,201.937087 128.715679,206.190925 C124.553629,210.438027 120.930652,215.244115 118.268925,221.120186 C114.86881,228.624383 113.90672,237.627904 117.832452,245.109372 C118.887892,247.120537 121.521026,251.158021 124.250033,252.992399 C114.032868,274.752382 108.415067,298.584143 109.048331,322.385598 C109.430981,336.75335 110.132365,351.126994 110.950647,365.477066 C111.170985,369.330186 112.42574,375.692843 114.310394,369.230849 C116.035261,363.320262 113.872239,354.041458 113.672084,347.866532 C112.69822,317.785763 111.865642,290.435094 124.248351,262.330974 C125.546836,259.385362 126.923534,256.463322 128.357419,253.564853 C128.441517,253.516026 128.519729,253.457097 128.598782,253.399851 C128.653446,253.441944 128.703065,253.487403 128.757729,253.528654 C128.849397,253.365336 128.974704,253.17087 129.121036,252.953674 C129.532279,252.529385 129.891381,251.99313 130.232822,251.394579 C131.331152,249.872525 132.574133,248.084448 132.580861,247.105384 C132.580861,247.097807 132.576656,247.086022 132.576656,247.078445 C140.242263,234.565276 149.022178,222.741577 157.990476,211.149386 C157.923197,211.23357 167.718185,197.897078 166.203566,205.272473 C165.473588,208.826738 158.268843,215.595164 155.359024,219.35989 C148.922101,227.735396 141.3633,238.347681 135.081959,248.609759 C134.236766,249.095503 133.042563,251.480447 132.178869,253.256738 C131.702028,254.156669 131.257146,255.064177 130.819832,255.854668 C153.076582,263.208176 170.390004,248.395931 182.195796,231.167594 C182.210092,231.147389 182.222707,231.126343 182.236163,231.106139 C185.828864,226.345511 189.509028,221.618557 194.10671,217.855515 C201.777363,211.576201 209.992135,210.468334 219.036121,207.377925 C243.699779,198.951066 254.18606,166.987092 257.516373,143.269822 C261.273908,116.512653 242.894113,75.4828606 210.80537,78.1211996" id="Leaf-Me-Alone!" fill="#89C5CC"></path>
                            <path d="M187.087285,8.28187838 C160.498481,29.1635113 144.586107,61.0733802 131.288496,91.3053591 C116.436639,125.071454 104.873047,159.852852 99.4843227,196.372108 C95.9443747,220.365462 91.8946121,244.44009 89.9250364,268.625714 C89.2249833,277.215152 88.8748455,285.868946 89.0407006,294.486685 C89.0545865,295.194866 89.4310473,314.437622 92.9380414,310.458848 C94.9325477,308.196212 92.5847722,290.502543 92.6250129,287.616161 C92.8548439,271.35938 94.6480975,255.202131 97.0075499,239.126854 C100.892071,212.659438 103.8149,186.195152 110.209077,160.179766 C111.163144,156.295431 112.0616,152.201098 113.539379,148.477679 C115.109085,144.518959 113.591965,146.130097 117.057176,144.962594 C120.424285,143.827288 124.27953,144.598829 127.821221,143.078763 C141.869801,137.048323 151.32577,117.815648 158.339102,105.310098 C166.360518,91.0095004 172.210631,75.380055 177.309925,59.8610252 C181.055021,48.4585852 184.191433,37.0431561 186.706808,25.3142977 C187.499429,21.6177491 188.064185,17.7150456 189.314089,14.1464607 C189.650899,13.1838012 190.889167,11.5711488 190.976475,10.6889811 C191.161137,8.82194319 190.19407,7.57272465 190.321563,6 C189.227765,6.73737876 188.148642,7.49851591 187.087285,8.28187838" id="Leaf-Me-Alone!" fill="#89C5CC" transform="translate(140.000000, 158.500000) rotate(-8.000000) translate(-140.000000, -158.500000) "></path>
                            <path d="M38,328 C38,368.316787 70.6832133,401 111,401 C151.316787,401 184,368.316787 184,328" id="Base" fill="#89C5CC"></path>
                            <path d="M116.857294,328.232365 L113,328.232365 C113.267642,323.392844 113.62115,318.561789 114.430188,313.776147 C117.524558,295.473303 127.199937,268.591213 148.420279,265.620466 C149.203131,265.50975 152.082849,265.491157 155.57117,265.695686 C157.224419,264.771923 159.076327,264.213271 161.027565,264.084806 C179.094613,262.752829 199.271153,277.328505 207.986064,292.49664 C215.01153,304.726145 213.827993,320.785081 209.488635,333.777767 C206.582823,342.476182 200.240879,354.878099 189.6648,354.998958 C176.432916,355.150242 175.794849,338.796344 175.538949,329.235863 C175.198872,316.525461 173.592762,305.452985 163.577306,296.789222 C161.24306,294.770973 158.691635,292.995286 156.33382,291.004928 C152.641788,287.889659 148.561698,284.700014 148.086094,279.546212 C147.429508,272.435859 151.443098,271.156282 157.571231,272.477271 C158.615876,272.702085 169.138923,277.424009 167.580795,273.69177 C167.105191,272.551646 165.367764,271.648167 163.174937,270.971192 C157.500522,270.354223 150.733481,269.63837 148.787294,270.066022 C127.791706,274.672159 119.617215,303.755053 117.446273,322.232845 C117.211978,324.227323 117.022514,326.228307 116.857293,328.232365 Z" id="Leaf-Me-Alone!" fill="#69A1AC"></path>
                        </g>
                        <g id="Plant-Left" opacity="0.5" transform="translate(0.000000, 14.000000)">
                            <path d="M178.22298,111.444518 C182.425309,105.452509 190.223629,90.2347729 196.138329,88.0936482 C199.947942,86.7145659 198.837195,100.980115 198.884241,103.700243 C199.067454,114.223987 198.04293,124.681002 196.777726,135.11639 C194.498335,153.936569 187.044926,170.697369 176.822023,186.715278 C171.561534,194.957467 165.391397,203.299596 156.84547,208.442327 C152.911771,210.810658 148.178543,211.207195 144.293769,213.247706 C139.769382,215.623126 142.233354,213.702848 140.194367,218.417487 C137.362802,224.963133 136.457106,233.407714 135.146985,240.392151 C129.131553,272.454512 114.568305,441.944513 117.093014,474.558062 C117.317249,477.448784 113.286509,478.140055 113.085292,474.611088 C112.015789,455.899518 121.270437,326.322179 125.939564,283.946664 C130.608691,241.571148 135.333634,204.134499 140.071325,189.473898 C145.818851,171.687472 156.199212,150.297922 164.840137,133.71131 C168.853782,126.005544 173.228734,118.565238 178.22298,111.444518 Z" id="Leaf" fill="#69A1AC"></path>
                            <path d="M209.414132,319.277765 C220.349167,311.249697 232.185522,326.401056 222.290441,334.430358 C216.820206,338.868469 211.101395,337.289712 207.88186,333.591199 C205.791868,336.13879 203.835706,338.802543 201.956089,341.052489 C196.229376,347.9085 190.816767,354.92815 185.643881,362.111477 C174.898009,377.034662 165.688992,392.800688 156.060308,408.278421 C146.558057,423.5541 137.131786,438.908021 128.519073,454.570722 C121.222883,467.840829 111.497988,483.452044 109,498 C112.790111,467.146303 127.171863,437.490438 144.298022,410.29054 C161.284824,383.314089 180.779154,353.852808 207.081026,332.563583 C204.404139,328.627042 204.329828,323.00793 209.414132,319.277765 Z" id="Leaf" fill="#C1DEE2"></path>
                            <path d="M1.9131966,244.030768 C8.03244063,245.227492 18.0312164,259.070175 23.0752982,264.344345 C29.0698505,270.611956 34.5083971,277.292338 39.6348672,284.291716 C50.6711078,299.357587 60.5410853,315.375735 68.9339235,332.079859 C82.6164473,359.310923 93.5779281,387.264554 101.533144,416.917658 C106.40282,435.069395 109.555733,453.882964 111.42432,472.565152 C111.77721,476.088501 115.4712,503.252852 110.148387,503.985007 C105.361077,504.644266 106.839698,483.358557 106.608745,480.463176 C103.998072,447.797866 96.1772343,416.014794 85.2985211,385.226103 C82.9289815,378.519078 80.7275953,370.304171 76.9381423,364.268497 C74.2092052,359.921096 76.9185722,361.437175 72.1228242,359.791894 C68.0049102,358.378312 63.3131333,358.72373 59.0962962,356.993389 C49.9356343,353.236662 42.6005721,345.943735 36.1708879,338.607909 C23.6757579,324.351374 13.774003,308.928035 8.61263648,290.66039 C5.74946717,280.531578 3.11836073,270.343849 1.65825821,259.901833 C1.28055511,257.202878 -2.02816228,243.259967 1.9131966,244.030768 Z" id="Leaf" fill="#69A1AC"></path>
                            <path d="M26.061363,13.7160319 C49.111288,53.6904115 68.0527721,97.6012194 80.2834249,142.076227 C87.6937407,169.023152 92.875997,196.674657 98.0249813,224.126418 C105.997255,266.632047 113.538111,309.134396 115.683127,352.395051 C117.841152,395.906414 122.108499,446.091658 107.860834,488 C114.977614,445.451647 108.201957,400.162237 107.002263,357.34982 C106.428958,336.911865 104.767627,316.673726 102.588271,296.3552 C100.473423,276.645138 97.0183596,257.028931 93.8009172,237.47379 C92.2336415,227.950082 90.5876488,218.440705 88.9117997,208.936528 C88.4115013,206.100946 88.2001646,197.686783 86.4014385,195.749671 C84.5910631,193.799805 75.3542884,193.004911 72.454369,191.574216 C66.6149274,188.69262 61.1221445,184.599523 56.2608889,180.274642 C46.9417982,171.983953 38.8346584,161.151161 32.435855,150.472492 C17.6306837,125.76373 11.7115834,95.6100441 12.0107586,66.9941546 C12.0682413,61.4382419 21.003398,1.60995132 17.4148953,0.786066265 C17.6309536,0.533029377 17.8353283,0.27176118 18.0280364,0 C20.7448404,4.54878452 23.4108122,9.12839556 26.061363,13.7160319 Z" id="Leaf" fill="#89C5CC"></path>
                            <path d="M274.846162,157.887288 C275.201814,157.374304 277.516546,153.806661 276.35092,154.034666 C278.724178,153.570439 273.086653,157.969398 279,155.270217 C276.192302,157.921907 277.812715,161.366495 277.85019,164.93538 C277.91133,170.729664 276.941861,176.476433 275.850557,182.146394 C274.126127,191.108872 271.55719,199.823019 267.828427,208.1592 C259.70147,226.325634 245.90148,243.814146 229.518328,255.171668 C221.430419,260.779333 213.503908,262.688536 204.279644,265.270093 C198.453207,266.901031 197.991162,269.91496 194.898475,275.568863 C188.459734,287.344734 182.135661,299.078246 176.457263,311.251437 C169.676879,325.787507 163.094762,340.339599 156.885915,355.131559 C135.969422,404.957486 118.945337,456.577892 110.004808,510 C109.785907,478.518515 117.068634,446.095278 126.255091,416.088186 C132.946871,394.2257 141.658313,373.150925 150.949917,352.289498 C153.201461,347.235572 156.613471,340.734509 157.569628,335.154756 C158.23913,331.245304 156.192265,327.485558 155.255097,323.367253 C151.601499,307.329812 151.862999,289.362708 155.071402,273.239515 C158.608912,255.460636 168.839228,247.208854 186.145128,244.690591 C192.474243,243.769436 200.51871,244.107045 206.322196,241.408429 C212.645007,238.469723 215.253262,228.810237 218.848644,222.609606 C228.505717,205.953401 239.979718,189.979083 253.15504,175.944848 C256.803162,172.05859 260.726377,168.473254 264.88847,165.150086 C267.513083,163.053353 273.057504,160.47018 274.846162,157.887288 Z" id="Leaf" fill="#89C5CC"></path>
                            <path d="M80.7914533,476 L142.208547,476 C144.96997,476 147.208547,478.238576 147.208547,481 C147.208547,481.244141 147.190665,481.487955 147.155046,481.729484 L142.408062,513.917935 C140.96096,523.730477 132.540739,531 122.622066,531 L100.377934,531 C90.4592609,531 82.03904,523.730477 80.5919379,513.917935 L75.8449542,481.729484 C75.4420714,478.997608 77.3300935,476.456384 80.0619696,476.053501 C80.3034985,476.017881 80.547312,476 80.7914533,476 Z" id="Base" fill="#C1DEE2"></path>
                        </g>
                        <g id="Maceta" transform="translate(10.000000, 458.000000)" fill="#F2F2F2">
                            <path d="M15.4177215,48.4556962 C15.4177215,69.7431274 17.0976047,87 39.6455696,87 C62.1935345,87 63.8734177,69.7431274 63.8734177,48.4556962" id="Base"></path>
                            <path d="M46.353417,35.1741665 C45.5269187,36.603205 44.7899627,38.0608242 44.1390143,39.5403256 C44.1160396,36.4933476 44.2845204,33.4240409 44.7446025,30.3127562 C45.5310424,24.9833358 46.7322042,19.6816031 47.8609075,14.3883552 C48.6720893,10.5844334 48.6208382,3.75184321 51.6994412,0.720495335 C52.5436123,0.0653705071 52.7468496,1.35061199 52.7468496,1.90838357 C52.7574533,2.02627925 52.7444932,-0.368253357 51.9250641,0.0488472497 C47.0544384,2.56440155 45.4762567,10.4741295 43.916926,14.4343524 C41.6418466,20.2148131 39.7060851,26.1238872 38.9090415,32.1379063 C38.7075715,33.6571528 38.5980001,35.1759528 38.5726691,36.6920733 C38.4071338,36.2865836 38.2516131,35.877968 38.0795978,35.473818 C35.2684432,28.8805917 31.4746806,22.4472391 26.743081,16.51405 C25.578443,15.0541979 10.9341658,0.649489986 9.78778975,2.85422841 C9.90089571,3.17442235 10.1377113,3.44013419 10.4988257,3.65136394 C10.5200331,3.67547897 10.5206222,3.66208173 10.5082512,3.62635577 C11.3683278,5.01564911 13.8136552,7.16143971 14.5753532,8.37880186 C16.4922637,11.4423031 17.9820814,14.6933656 19.4960519,17.8823543 C22.69483,24.6216105 25.6620943,31.428746 28.5386382,38.2501718 C29.2084376,39.839084 29.9065135,41.4190647 30.6187276,42.994133 C23.2768544,32.4045113 13.4825846,22.7906549 -1.42108547e-14,17.2870705 C4.60494447,19.6298004 7.62404905,24.037491 10.733874,27.4122547 C14.4846328,31.4827815 18.4350943,35.4438975 22.1929222,39.5099586 C26.6252623,44.3066155 31.8405077,49.35782 36.1037779,54.6658048 C40.2333239,63.3356026 44.2462293,72.0147785 46.7233678,81.1284714 C45.7083596,77.9796744 46.6438402,73.6282523 46.4700576,70.3236008 C46.3322097,67.6932768 46.0247028,65.0843884 45.6035009,62.4804124 C46.1242596,63.6549034 46.5731489,64.8302875 46.7763862,65.923502 C46.5908217,64.089867 46.3769808,62.2678429 46.1472343,60.4551969 C46.7369169,58.7582137 47.3159959,57.1746605 47.7071541,55.8702163 C49.7118395,49.1787436 52.0988467,42.6024871 55.349465,36.192803 C58.3573768,30.263633 61.8076979,24.4099342 65.5672931,18.7348651 C67.3210246,16.088911 69.0989091,13.4527816 70.8656007,10.8121864 C72.0219914,9.08349646 73.1230073,6.31562756 74.733,4.65928264 C64.3260729,14.1739995 52.9559778,23.7574888 46.353417,35.1741665" id="Fill-27"></path>
                        </g>
                        <g id="Top-Leaves" transform="translate(755.000000, 0.000000)" fill="#F2F2F2">
                            <path d="M211.459988,136.913619 C211.697988,126.527619 207.442988,116.955619 202.732988,107.921619 C193.563988,90.3346193 188.977988,79.8126193 190.459988,58.9256193 C191.331988,46.6416193 192.373988,33.6626193 186.103988,22.5076193 C181.538988,14.3846193 171.962988,5.69461932 161.850988,7.16361932 C145.843988,10.8096193 136.907988,26.0616193 133.481988,41.2056193 C129.235988,59.9756193 134.097988,73.9796193 148.271988,86.0066193 C156.258988,92.7816193 160.763988,99.7606193 162.941988,110.078619 C164.684988,118.329619 164.189988,127.791619 167.170988,135.726619 C171.627988,147.588619 179.674988,154.832619 191.778988,157.035619 C187.410988,133.523619 181.274988,109.229619 171.435988,87.4316193 C170.552988,85.2746193 164.205988,76.0546193 166.846988,73.7256193 C169.755988,71.1616193 174.556988,85.9036193 174.518988,85.8116193 C177.307988,92.3626193 179.660988,99.1256193 181.922988,105.916619 C181.910988,105.918619 181.897988,105.917619 181.884988,105.919619 C184.219988,112.892619 186.494988,119.937619 188.667988,127.028619 C189.511988,130.003619 190.301988,132.995619 191.003988,136.027619 C192.033988,140.476619 192.155988,152.193619 195.076988,155.672619 C195.701988,156.416619 196.337988,156.925619 196.978988,157.258619 C198.148988,162.164619 199.240988,167.081619 200.197988,172.008619 C202.696988,184.876619 204.141988,198.075619 202.521988,211.160619 C202.048988,214.979619 197.189988,228.261619 198.799988,231.652619 C201.742988,237.854619 203.397988,228.290619 204.025988,225.445619 C209.218988,201.883619 207.341988,179.762619 201.675988,156.694619 C206.884988,153.106619 211.362988,141.121619 211.459988,136.913619" id="Leaf" transform="translate(171.734760, 120.352443) rotate(-18.000000) translate(-171.734760, -120.352443) "></path>
                            <path d="M115.85853,100.65925 C108.257019,101.771171 101.081536,111.378886 97.541036,117.784796 C93.1599315,125.711405 90.104439,134.755685 87.8025125,143.463054 C84.0100599,157.806497 83.4975663,173.726407 83.4506116,188.416535 C83.4448854,190.186755 83.0755464,211.810007 85.6036573,211.455273 C88.1082908,211.103988 86.5221374,188.659157 86.7357241,184.011394 C87.1903832,174.09264 86.510685,164.31072 88.8372342,154.517877 C91.2456677,144.377773 95.6617019,134.821802 101.24187,126.063265 C101.958215,124.939269 103.473937,120.760077 105.195801,121.725391 C106.879872,122.669432 102.214748,128.236513 101.552229,129.318538 C98.8168301,133.786922 96.4416084,138.518625 94.4746637,143.379689 C90.7892908,152.487211 88.8744544,162.017885 88.9397329,171.831426 C94.724898,172.719698 99.7650864,169.33219 101.705691,163.687492 C103.382318,158.808606 103.546087,153.133437 105.450616,148.52017 C106.762485,145.343087 108.849107,142.644924 111.400695,140.363587 C118.131826,134.346332 125.159001,132.841156 127.165456,122.85456 C128.738439,115.02569 126.785237,99.0684087 115.85853,100.65925" id="Leaf" transform="translate(105.535828, 156.004078) scale(-1, 1) rotate(58.000000) translate(-105.535828, -156.004078) "></path>
                            <path d="M2.35176464,80 L3.05533376e-13,80 C0.164757456,77.0154001 0.379352103,74.0356557 0.883673399,71.0844844 C2.77417712,60.0223263 8.68534409,43.7749092 21.6499002,41.9794028 C22.1281833,41.9124864 23.8875448,41.9012485 26.0187329,42.0248651 C27.0287844,41.4665469 28.1602067,41.1288998 29.3523143,41.0512563 C40.3903669,40.2462156 52.7172123,49.0556901 58.0415826,58.2232442 C62.3337871,65.6147029 61.6107055,75.3206535 58.9595774,83.1733759 C57.1842731,88.4306594 53.3096661,95.9263239 46.8482165,95.9993701 C38.7642046,96.0908055 38.3743782,86.2065813 38.2180362,80.4282689 C38.0102659,72.7461579 37.0290143,66.0540017 30.910077,60.8176615 C29.4839707,59.597841 27.9251794,58.5246237 26.4846732,57.3216599 C24.2290287,55.4388046 21.7362997,53.5109978 21.4457299,50.3960624 C21.0445893,46.0985958 23.4966899,45.3252255 27.240669,46.1236256 C27.878894,46.2595018 34.3079438,49.1134119 33.3560062,46.8576634 C33.0654364,46.1685771 32.0039566,45.6225184 30.6642498,45.2133575 C27.1974692,44.8404643 23.0631495,44.407806 21.8741275,44.6662772 C9.04688492,47.450206 4.05268426,65.0277791 2.72634882,76.1956755 C2.5761854,77.4602545 2.45616417,78.7291607 2.35176454,80 Z" id="Leaf-Me-Alone!" transform="translate(30.552422, 68.500000) scale(-1, 1) translate(-30.552422, -68.500000) "></path>
                        </g>
                    </g>
                </g>
                <g id="Group" transform="translate(364.000000, 119.000000)">
                    <g id="Head" transform="translate(104.000000, 0.000000)">
                        <g transform="translate(17.750000, 30.875000)" fill="#B28B67">
                            <path d="M9.29505812,38.8013926 C4.11115989,32.7165479 0.602589143,25.2594868 1.18887338,16.9036356 C2.8781215,-7.17189815 36.392097,-1.87558746 42.9112591,10.2756745 C49.4304211,22.4269365 48.6557752,53.2496203 40.2303391,55.4213898 C36.8702868,56.2874884 29.7123763,54.1658936 22.4272935,49.7748443 L27,82.125 L0,82.125 L9.29505812,38.8013926 Z"></path>
                        </g>
                        <path d="M49.9964319,27.9162233 C46.3070601,26.7912233 40.9513885,26.4096998 38.6984167,26.6677973 C39.9800098,23.5971994 40.4885647,20.176184 40.0739697,16.8452215 C39.6710012,13.6085743 38.2247415,10.8526631 36.8871686,7.96480118 C36.2706157,6.63368582 35.5719016,5.30982549 34.5301605,4.29167368 C33.4689556,3.25438676 32.1256126,2.56969395 30.7169884,2.24303654 C29.2754654,1.90867066 27.7681446,1.93651181 26.3243824,2.23995315 C25.6856959,2.37417108 25.1126349,2.66618576 24.486264,2.8285169 C23.8448215,2.99483831 23.5336599,2.59336347 23.0680802,2.18989349 C21.9460727,1.2177204 20.3012138,0.737800623 18.8817382,0.566037951 C17.2891558,0.373417088 15.636632,0.61364904 14.1177707,1.13718964 C12.6393871,1.64685502 11.2191364,2.47447177 10.1502666,3.68016592 C9.67435218,4.21685626 9.24236033,4.8277292 8.96160008,5.50217428 C8.84645393,5.77895342 8.8274208,5.94291694 8.55122506,6.04430589 C8.2957849,6.13816775 7.99702499,6.14088838 7.73340317,6.23021585 C5.18434125,7.0935636 3.00491827,9.06312099 1.81823254,11.59195 C1.12589154,13.0672589 0.797936012,15.6647565 0.887762067,18.5761246 C0.977588123,21.4874927 3.60639974,29.0840827 6.06511888,31.8549574 C8.25978558,34.3281948 11.4856864,35.9603029 14.5989386,36.6747413 C12.5325088,39.0367048 11.1569558,41.9882295 10.1397597,44.9899953 C9.03489057,48.2506748 8.35107572,51.6386799 8.09856375,55.0907105 C7.85871181,58.3705251 7.83649214,61.8389703 8.60539628,65.0487739 C9.32469371,68.050449 10.8629326,70.5128945 13.4308554,72.0750823 C14.6071203,72.7906997 15.8726945,73.3282969 17.1455891,73.8196433 C18.4000535,74.3038254 19.6583072,74.7745857 20.9723686,75.0462864 C23.459336,75.5603047 26.3248991,75.4720655 28.2406141,73.4925325 C28.9310604,72.7789103 29.690405,71.8821894 30.1941371,71.0104077 C30.3752533,70.6969 30.4844569,70.4918549 30.2644133,70.1854209 C30.0007914,69.8184074 29.5743976,69.5371846 29.2357628,69.250067 C27.3046318,67.6130618 26.1092477,65.4276674 25.8079041,62.8305505 C25.5021682,60.1954355 26.2100113,56.79419 28.7719917,55.6441781 C31.9345061,54.2245515 35.4173112,55.8540297 38.2281864,57.3729594 C39.4227954,53.1567028 41.8756582,49.3604212 45.7212985,47.4264135 C49.9758498,45.2868165 54.8578916,45.0364275 59.2300866,43.2006346 C60.3694048,42.7222565 61.529823,42.179218 62.3686589,41.2045057 C62.7191786,40.7971361 63.1304148,40.2686984 63.2703643,39.7299222 C63.4542365,39.0221947 62.9977858,38.4288245 62.6451991,37.87708 C60.7756459,34.9515826 53.6858037,29.0412233 49.9964319,27.9162233 Z" id="hair" fill="#191847"></path>
                    </g>
                    <g id="Bottom" transform="translate(33.000000, 207.000000)">
                        <g id="Seat" transform="translate(0.043333, 30.389121)" fill="#C5CFD6">
                            <ellipse id="Ballsy-Ball" cx="86.4966667" cy="82.7259414" rx="86.4966667" ry="82.7259414"></ellipse>
                        </g>
                        <path d="M249.995394,183.077403 C235.602366,151.15948 225.193473,123.366643 221.015382,108.703076 C213.861476,83.5954899 208.419214,61.5022802 207.043704,53.2516189 C203.763624,33.5768588 232.275959,32.4311582 236.044691,42.2091712 C241.748816,57.0085821 251.706928,105.633271 263.672359,179.079053 L249.995394,183.077403 Z M83.0445758,82.9100111 C96.2501638,77.6800269 142.49543,61.3127313 164.799522,56.6827228 C171.208823,55.3522441 177.420906,54.1160793 183.261354,52.99893 C200.62123,49.6783669 209.615275,81.0572728 192.895597,83.4682865 C151.256989,89.4726634 92.2272304,95.6731583 87.175573,96.3689957 C80.0954595,97.3442416 74.7452754,86.1968931 83.0445758,82.9100111 Z" id="Skin" fill="#B28B67"></path>
                        <path d="M193.916199,44.3639048 L122.486667,7.93124261 L122.486667,0 L130.981522,0 C200.086394,17.6433861 235.398928,28.9503311 236.919123,33.920835 C236.935478,33.9743118 236.950474,34.0278586 236.96411,34.0814756 C236.998887,34.1272108 237.033075,34.1732226 237.066667,34.2195106 C250.761792,53.0909495 258.963747,145.222819 261.655777,152.121341 L235.412817,156.04406 C225.374188,118.746387 193.256667,92.763469 194.109824,48.0924847 C193.879453,46.7821115 193.821244,45.5394453 193.916199,44.3639048 Z" id="Leg-Back" fill="#1F28CF"></path>
                        <path d="M128.421432,66.0012054 C121.885795,64.6903632 115.867176,63.5204566 110.717172,62.615388 C77.4514354,56.7692234 67.7508636,38.9276207 73.4863596,-4.97379915e-14 L134.777913,-4.97379915e-14 C144.789993,2.88169691 196.822168,24.7444407 223.818772,36.372781 C241.686508,44.0690124 236.054016,71.8134108 225.935508,79.0336428 C225.880562,79.4765901 225.698462,79.7774714 225.374188,79.9121339 C170.943747,102.515622 127.884273,90.6556293 113.5,94.4450754 L106.846631,73.4160837 L128.421432,66.0012054 Z" id="Leg-Front" fill="#2B44FF"></path>
                        <g id="Right-Shoe" transform="translate(96.843477, 109.653500) rotate(64.000000) translate(-96.843477, -109.653500) translate(63.843477, 97.653500)" fill="#E4E4E4">
                            <path d="M2.1313891,7.30804686 C0.797894726,10.8030161 0.131147541,13.406627 0.131147541,15.1188797 C0.131147541,17.1475767 0.47096033,20.1079501 1.15058591,24 C3.51687706,24 24.7831341,24 64.9493571,24 C66.607261,18.5488207 65.6502227,15.6059043 62.0782422,15.171251 C58.5062618,14.7365978 55.5389569,14.3441406 53.1763277,13.9938797 L23.3971822,0.790338663 C22.8922992,0.566482544 22.3015394,0.794299876 22.0776833,1.29918292 C22.074387,1.30661729 22.0711815,1.3140916 22.0680676,1.32160418 L20.1108476,6.04353192 C16.8041279,7.57798368 14.1170749,8.34520955 12.0496885,8.34520955 C10.3229394,8.34520955 7.91985705,7.63219454 4.84044141,6.20616453 L4.84044935,6.20614737 C3.8381261,5.74198689 2.64930615,6.17825401 2.18514567,7.18057726 C2.16576222,7.22243451 2.14783264,7.2649498 2.1313891,7.30804686 Z" id="shoe"></path>
                        </g>
                        <g id="Right-Shoe" transform="translate(241.000000, 170.000000)" fill="#E4E4E4">
                            <path d="M2.1313891,7.30804686 C0.797894726,10.8030161 0.131147541,13.406627 0.131147541,15.1188797 C0.131147541,17.1475767 0.47096033,20.1079501 1.15058591,24 C3.51687706,24 24.7831341,24 64.9493571,24 C66.607261,18.5488207 65.6502227,15.6059043 62.0782422,15.171251 C58.5062618,14.7365978 55.5389569,14.3441406 53.1763277,13.9938797 L23.3971822,0.790338663 C22.8922992,0.566482544 22.3015394,0.794299876 22.0776833,1.29918292 C22.074387,1.30661729 22.0711815,1.3140916 22.0680676,1.32160418 L20.1108476,6.04353192 C16.8041279,7.57798368 14.1170749,8.34520955 12.0496885,8.34520955 C10.3229394,8.34520955 7.91985705,7.63219454 4.84044141,6.20616453 L4.84044935,6.20614737 C3.8381261,5.74198689 2.64930615,6.17825401 2.18514567,7.18057726 C2.16576222,7.22243451 2.14783264,7.2649498 2.1313891,7.30804686 Z" id="shoe"></path>
                        </g>
                    </g>
                    <g id="Body/Long-Sleeve-1" transform="translate(38.000000, 84.000000)">
                        <path d="M176.628855,107.553005 L212.51441,133.857581 C222.247312,136.479188 230.378836,139.740909 236.908984,143.642745 C238.451518,145.04582 240.315816,147.88728 233.918553,147.396205 C227.52129,146.90513 220.770205,146.675788 219.887507,148.853905 C219.004809,151.032023 222.876086,153.636813 221.091769,156.575665 C219.902224,158.534899 214.282337,153.622192 204.232109,141.837543 L168.695996,127.127882 L176.628855,107.553005 Z M38.8464191,108.460841 L62.3559848,108.553128 C47.8399127,155.329974 40.0033908,180.149476 38.8464191,183.011633 C36.2432326,189.451486 41.7519252,199.259271 44.1076608,204.529901 C36.4351085,207.95702 37.2526271,195.265 27.5739088,199.759858 C18.7396235,203.862555 12.0194047,211.296368 1.81266461,205.009722 C0.557805889,204.236816 -0.817314828,201.326685 2.50515067,199.052571 C10.7826239,193.386925 22.7109642,183.471023 24.3226709,180.207127 C26.5205208,175.756221 31.3617702,151.840793 38.8464191,108.460841 Z" id="Skin" fill="#B28B67"></path>
                        <path d="M100.083503,14.7667851 L109.629333,12.2596811 C148.298405,40.1197217 168.278335,98.3935466 215.112683,126.092096 L205.652878,140.145984 C128.366301,137.385348 103.058487,66.3872597 100.083503,14.7667851 Z" id="Coat-Back" fill="#E87613" transform="translate(157.598093, 76.202832) rotate(5.000000) translate(-157.598093, -76.202832) "></path>
                        <path d="M63.25,132.02139 C102.255725,132.02139 130.947519,132.02139 149.325382,132.02139 C153.258588,132.02139 152.51745,126.352106 151.948882,123.491354 C145.386911,90.4748178 119.771467,54.8845896 119.771467,7.88638162 L94.9432751,4 C74.4071706,36.9693339 67.3054296,77.5612593 63.25,132.02139 Z" id="Shirt" fill="#DDE3E9"></path>
                        <path d="M63.9416965,36.4073331 C60.3357131,35.3726393 57.4801476,32.9594106 55.375,29.1676467 C46.3002516,12.8223311 49.577568,3.82302414 59.275596,0.864901132 C68.973624,-2.09322188 77.6222342,4 93.0737852,4 C93.9142209,4 94.6839653,4.05259269 95.3830185,4.15777806 L103.155536,4.6005101 C125.455734,80.0438012 131.605996,130.378391 121.606321,155.604278 L53.8582908,155.604278 C49.8442921,164.947449 46.003234,172.808411 42.3351167,179.187166 L23.875,179.187166 C22.1376436,123.112776 35.4932091,75.5194983 63.9416965,36.4073331 Z" id="Coat-Front" fill="#FF9B21"></path>
                        <path d="M68.6108823,116.858306 C70.7415447,134.653717 74.2045839,147.569041 79,155.604278 L53.8582908,155.604278 C58.5405082,144.705731 63.4580385,131.790406 68.6108818,116.858305 Z" id="Shade" fill-opacity="0.1" fill="#000000"></path>
                    </g>
                </g>
            </g>
        </g>
    </g>
</svg>